M48
; DRILL file {KiCad 5.1.6-c6e7f7d~86~ubuntu18.04.1} date Sat Jun 20 16:02:36 2020
; FORMAT={3:3/ absolute / metric / suppress leading zeros}
; #@! TF.CreationDate,2020-06-20T16:02:36+10:00
; #@! TF.GenerationSoftware,Kicad,Pcbnew,5.1.6-c6e7f7d~86~ubuntu18.04.1
FMAT,2
METRIC,TZ
T1C0.300
T2C0.400
T3C0.500
T4C0.800
T5C0.900
T6C1.000
T7C1.100
T8C3.600
T9C2.000
T10C3.600
%
G90
G05
T1
X71565Y-122065
X75125Y-70955
X78390Y-95090
X78800Y-97750
X79050Y-69265
X79220Y-65460
X79650Y-97551
X80720Y-100480
X80920Y-95040
X81790Y-100320
X81960Y-98335
X83490Y-95050
X83530Y-100430
X84475Y-69320
X85940Y-68430
X89570Y-61500
X89590Y-64595
X89605Y-68645
X94290Y-96070
X94560Y-57405
X94615Y-74720
X95850Y-58670
X95900Y-96030
X99520Y-79480
X99980Y-96100
X100720Y-83620
X101970Y-78150
X102250Y-96090
X103809Y-75029
X104010Y-84800
X107060Y-78490
X108775Y-67160
X108910Y-104810
X111610Y-104870
X113260Y-67280
X115135Y-68510
X119220Y-132730
X130570Y-72870
X131785Y-92689
X131920Y-113310
X132860Y-92350
X148820Y-100275
X152460Y-66075
X154510Y-48225
X155532Y-66096
X155735Y-50855
X156820Y-66090
X157873Y-82465
X157900Y-83270
T2
X56570Y-124180
X56570Y-127180
X56570Y-129965
X56570Y-133180
X56570Y-136180
X102135Y-57560
X115920Y-77880
X124880Y-74820
X139200Y-101900
X155500Y-113300
X183310Y-124180
X183310Y-133180
X183310Y-136180
T3
X58940Y-77890
X72590Y-113095
X75075Y-113095
X79810Y-90960
X79850Y-82200
X82730Y-72510
X84695Y-112995
X87215Y-112995
X87840Y-68470
X87885Y-83565
X95195Y-90690
X95780Y-83470
X96030Y-111545
X99515Y-113045
X103260Y-89590
X103270Y-78615
X106070Y-92480
X106450Y-100205
X109090Y-96550
X110570Y-63770
X110605Y-69895
X110620Y-60970
X111150Y-111740
X111580Y-100245
X116470Y-113580
X117725Y-84260
X118990Y-113545
X128980Y-82090
X133710Y-100430
X137400Y-114100
X146510Y-81900
X149540Y-48320
X149790Y-58380
X149890Y-55860
X150500Y-81900
X150600Y-73480
X151500Y-78950
X152160Y-102690
X152945Y-113345
X157980Y-71500
X183310Y-127025
X183310Y-130155
T4
X145795Y-94555
X155955Y-94555
X145760Y-98660
X155920Y-98660
T5
X66540Y-108625
X68540Y-101125
X70425Y-130185
X72925Y-125185
X72925Y-130185
X75425Y-130185
X77925Y-125185
X77925Y-130185
X80425Y-130185
X82925Y-125185
X82925Y-130185
X85425Y-130185
X87925Y-125185
X87925Y-130185
X90425Y-130185
X92925Y-125185
X92925Y-130185
X95425Y-130185
X97925Y-125185
X97925Y-130185
X100425Y-130185
X102925Y-125185
X102925Y-130185
X105425Y-130185
X107925Y-125185
X107925Y-130185
X110425Y-130185
X112925Y-125185
X112925Y-130185
X115425Y-130185
X117925Y-125185
X117925Y-130185
X120425Y-130185
X122925Y-125185
X122925Y-130185
X125425Y-130185
X127925Y-125185
X127925Y-130185
X130425Y-130185
X132925Y-125185
X132925Y-130185
X135425Y-130185
X137925Y-125185
X137925Y-130185
X140425Y-130185
X142925Y-125185
X142925Y-130185
X145425Y-130185
X147925Y-125185
X147925Y-130185
X150425Y-130185
X152925Y-125185
X152925Y-130185
X155425Y-130185
X157925Y-125185
X157925Y-130185
X160425Y-130185
T6
X48730Y-91970
X48730Y-97050
X187720Y-95900
X190220Y-93360
X190220Y-98440
X48730Y-75970
X48730Y-78510
X48730Y-81050
X114410Y-44190
X116950Y-44190
X119490Y-44190
X122030Y-44190
X187750Y-75740
X190250Y-73200
X190250Y-78280
X67360Y-75970
X67360Y-78510
X67360Y-81050
T7
X126280Y-43060
X126280Y-45600
X126280Y-48140
X126280Y-50680
X126280Y-53220
X126280Y-55760
X126280Y-58300
X126280Y-60840
X126280Y-63380
X126280Y-65920
X126280Y-68460
X126280Y-71000
X126280Y-73540
X126280Y-76080
X126280Y-78620
X126280Y-81160
X126280Y-83700
X126280Y-86240
X126280Y-88780
X126280Y-91320
X126280Y-93860
X126280Y-96400
X126280Y-98940
X126280Y-101480
X129290Y-51950
X129290Y-54490
X129290Y-57030
X129290Y-59570
X138980Y-50680
X138980Y-53220
X138980Y-55760
X141520Y-43060
X141520Y-45600
X141520Y-48140
X141520Y-50680
X141520Y-53220
X141520Y-55760
X141520Y-58300
X141520Y-60840
X141520Y-63380
X141520Y-65920
X141520Y-68460
X141520Y-71000
X141520Y-73540
X141520Y-76080
X141520Y-78620
X141520Y-81160
X141520Y-83700
X141520Y-86240
X141520Y-88780
X141520Y-91320
X141520Y-93860
X141520Y-96400
X141520Y-98940
X141520Y-101480
T8
X47425Y-127685
X191825Y-127685
T9
X68425Y-122685
X167425Y-131185
T10
X47425Y-48185
X191825Y-48185
T0
M30
