G04 #@! TF.GenerationSoftware,KiCad,Pcbnew,5.1.6-c6e7f7d~86~ubuntu18.04.1*
G04 #@! TF.CreationDate,2020-06-20T16:23:47+10:00*
G04 #@! TF.ProjectId,X3V0_2,58335630-5f32-42e6-9b69-6361645f7063,rev?*
G04 #@! TF.SameCoordinates,Original*
G04 #@! TF.FileFunction,Soldermask,Top*
G04 #@! TF.FilePolarity,Negative*
%FSLAX46Y46*%
G04 Gerber Fmt 4.6, Leading zero omitted, Abs format (unit mm)*
G04 Created by KiCad (PCBNEW 5.1.6-c6e7f7d~86~ubuntu18.04.1) date 2020-06-20 16:23:47*
%MOMM*%
%LPD*%
G01*
G04 APERTURE LIST*
%ADD10R,0.428600X1.533500*%
%ADD11R,0.900000X1.500000*%
%ADD12R,1.200000X1.450000*%
%ADD13C,1.800000*%
%ADD14R,1.800000X1.800000*%
%ADD15R,0.800000X1.750000*%
%ADD16R,1.500000X0.900000*%
%ADD17R,1.100000X1.000000*%
%ADD18R,1.200000X0.700000*%
%ADD19R,0.700000X2.200000*%
%ADD20R,4.700000X2.200000*%
%ADD21R,1.450000X1.200000*%
%ADD22C,3.800000*%
%ADD23C,1.700000*%
%ADD24C,2.200000*%
%ADD25R,1.700000X0.800000*%
%ADD26R,0.700000X0.700000*%
%ADD27R,0.800000X2.150000*%
%ADD28O,2.000000X1.750000*%
%ADD29R,2.700000X3.500000*%
%ADD30R,1.490000X0.390000*%
%ADD31R,3.400000X1.200000*%
%ADD32O,2.000000X2.000000*%
%ADD33R,2.000000X2.000000*%
%ADD34R,0.800000X1.700000*%
%ADD35R,2.150000X2.700000*%
%ADD36R,0.800000X0.650000*%
%ADD37R,1.750000X0.800000*%
%ADD38R,1.900000X1.900000*%
%ADD39O,1.900000X1.900000*%
%ADD40O,1.800000X1.800000*%
%ADD41C,0.254000*%
G04 APERTURE END LIST*
D10*
X154069999Y-67563850D03*
X154570001Y-67563850D03*
X155070000Y-67563850D03*
X155569999Y-67563850D03*
X156070001Y-67563850D03*
X156070001Y-71996150D03*
X155569999Y-71996150D03*
X155070000Y-71996150D03*
X154570001Y-71996150D03*
X154069999Y-71996150D03*
D11*
X148260000Y-68770000D03*
X146360000Y-68770000D03*
D12*
X148310000Y-71390000D03*
X146310000Y-71390000D03*
D13*
X129290000Y-57030000D03*
X129290000Y-54490000D03*
X129290000Y-59570000D03*
X129290000Y-51950000D03*
X138980000Y-55760000D03*
X138980000Y-53220000D03*
X138980000Y-50680000D03*
X126280000Y-83700000D03*
X126280000Y-86240000D03*
X126280000Y-88780000D03*
X126280000Y-91320000D03*
X126280000Y-81160000D03*
X126280000Y-78620000D03*
X126280000Y-76080000D03*
X126280000Y-93860000D03*
X126280000Y-96400000D03*
X126280000Y-98940000D03*
X126280000Y-101480000D03*
X141520000Y-101480000D03*
X141520000Y-98940000D03*
X141520000Y-96400000D03*
X141520000Y-93860000D03*
X141520000Y-91320000D03*
X141520000Y-88780000D03*
X141520000Y-86240000D03*
X141520000Y-83700000D03*
X126280000Y-73540000D03*
X126280000Y-71000000D03*
X126280000Y-68460000D03*
X126280000Y-65920000D03*
X126280000Y-63380000D03*
X126280000Y-60840000D03*
X126280000Y-58300000D03*
X126280000Y-55760000D03*
X126280000Y-53220000D03*
X126280000Y-50680000D03*
X126280000Y-48140000D03*
X126280000Y-45600000D03*
D14*
X126280000Y-43060000D03*
D13*
X141520000Y-81160000D03*
X141520000Y-78620000D03*
X141520000Y-76080000D03*
X141520000Y-73540000D03*
X141520000Y-71000000D03*
X141520000Y-68460000D03*
X141520000Y-65920000D03*
X141520000Y-63380000D03*
X141520000Y-60840000D03*
X141520000Y-58300000D03*
X141520000Y-55760000D03*
X141520000Y-53220000D03*
X141520000Y-50680000D03*
X141520000Y-48140000D03*
X141520000Y-45600000D03*
X141520000Y-43060000D03*
D15*
X137905000Y-111660000D03*
X136635000Y-111660000D03*
X135365000Y-111660000D03*
X134095000Y-111660000D03*
X134095000Y-106260000D03*
X135365000Y-106260000D03*
X136635000Y-106260000D03*
X137905000Y-106260000D03*
D16*
X129180000Y-107010000D03*
X129180000Y-105110000D03*
X131740000Y-106990000D03*
X131740000Y-105090000D03*
X104750000Y-113880000D03*
X104750000Y-111980000D03*
D17*
X107810000Y-112920000D03*
X109810000Y-111970000D03*
X109810000Y-113870000D03*
D12*
X135280000Y-103940000D03*
X137280000Y-103940000D03*
X131950000Y-111760000D03*
X129950000Y-111760000D03*
D18*
X98770000Y-47930000D03*
X95200000Y-47920000D03*
D19*
X98230000Y-47940000D03*
X97030000Y-47940000D03*
X95830000Y-47940000D03*
D20*
X92750000Y-47940000D03*
X101250000Y-47940000D03*
D16*
X89140000Y-54580000D03*
X89140000Y-52680000D03*
D12*
X98440000Y-53000000D03*
X96440000Y-53000000D03*
D21*
X86360000Y-54940000D03*
X86360000Y-52940000D03*
X106170000Y-57960000D03*
X106170000Y-55960000D03*
D11*
X83610000Y-74600000D03*
X81710000Y-74600000D03*
D22*
X191825000Y-48185000D03*
X47425000Y-48185000D03*
D23*
X157925000Y-125185000D03*
X152925000Y-125185000D03*
X147925000Y-125185000D03*
X142925000Y-125185000D03*
X137925000Y-125185000D03*
X132925000Y-125185000D03*
X127925000Y-125185000D03*
X122925000Y-125185000D03*
X117925000Y-125185000D03*
X112925000Y-125185000D03*
X107925000Y-125185000D03*
X102925000Y-125185000D03*
X97925000Y-125185000D03*
X92925000Y-125185000D03*
X87925000Y-125185000D03*
X82925000Y-125185000D03*
X77925000Y-125185000D03*
X72925000Y-125185000D03*
X160425000Y-130185000D03*
X157925000Y-130185000D03*
X155425000Y-130185000D03*
X152925000Y-130185000D03*
X150425000Y-130185000D03*
X147925000Y-130185000D03*
X145425000Y-130185000D03*
X142925000Y-130185000D03*
X140425000Y-130185000D03*
X137925000Y-130185000D03*
X135425000Y-130185000D03*
X132925000Y-130185000D03*
X130425000Y-130185000D03*
X127925000Y-130185000D03*
X125425000Y-130185000D03*
X122925000Y-130185000D03*
X120425000Y-130185000D03*
X117925000Y-130185000D03*
X115425000Y-130185000D03*
X112925000Y-130185000D03*
X110425000Y-130185000D03*
X107925000Y-130185000D03*
X105425000Y-130185000D03*
X102925000Y-130185000D03*
X100425000Y-130185000D03*
X97925000Y-130185000D03*
X95425000Y-130185000D03*
X92925000Y-130185000D03*
X90425000Y-130185000D03*
X87925000Y-130185000D03*
X85425000Y-130185000D03*
X82925000Y-130185000D03*
X80425000Y-130185000D03*
X77925000Y-130185000D03*
X75425000Y-130185000D03*
X72925000Y-130185000D03*
X70425000Y-130185000D03*
D22*
X47425000Y-127685000D03*
X191825000Y-127685000D03*
D24*
X68425000Y-122685000D03*
X167425000Y-131185000D03*
D16*
X121900000Y-101390000D03*
X121900000Y-103290000D03*
D11*
X93855000Y-52980000D03*
X91955000Y-52980000D03*
D25*
X77725000Y-62945000D03*
X77725000Y-64215000D03*
X77725000Y-65485000D03*
X77725000Y-66755000D03*
X77725000Y-68025000D03*
X77725000Y-69295000D03*
X77725000Y-70565000D03*
X83125000Y-70565000D03*
X83125000Y-69295000D03*
X83125000Y-68025000D03*
X83125000Y-66755000D03*
X83125000Y-65485000D03*
X83125000Y-64215000D03*
X83125000Y-62945000D03*
D16*
X75125000Y-69915000D03*
X75125000Y-68015000D03*
D11*
X77165000Y-73200000D03*
X79065000Y-73200000D03*
D12*
X81545000Y-60595000D03*
X83545000Y-60595000D03*
D16*
X89605000Y-71495000D03*
X89605000Y-69595000D03*
X91980000Y-72735000D03*
X91980000Y-74635000D03*
X89605000Y-65535000D03*
X89605000Y-67435000D03*
X89590000Y-60665000D03*
X89590000Y-62565000D03*
X85940000Y-67440000D03*
X85940000Y-65540000D03*
X85905000Y-69545000D03*
X85905000Y-71445000D03*
D26*
X92010000Y-70680000D03*
X92010000Y-68480000D03*
D27*
X103445001Y-65300001D03*
X102175001Y-65300001D03*
X100905001Y-65300001D03*
X99635001Y-65300001D03*
X98365001Y-65300001D03*
X97095001Y-65300001D03*
X95825001Y-65300001D03*
X94555001Y-65300001D03*
X93285001Y-65300001D03*
X92015001Y-65300001D03*
X92015001Y-55900001D03*
X93285001Y-55900001D03*
X94555001Y-55900001D03*
X95825001Y-55900001D03*
X97095001Y-55900001D03*
X98365001Y-55900001D03*
X99635001Y-55900001D03*
X100905001Y-55900001D03*
X102175001Y-55900001D03*
X103445001Y-55900001D03*
D11*
X100920000Y-73330000D03*
X99020000Y-73330000D03*
D12*
X96675000Y-73375000D03*
X94675000Y-73375000D03*
D16*
X98480000Y-69045000D03*
X98480000Y-70945000D03*
X100930000Y-70955000D03*
X100930000Y-69055000D03*
D12*
X101010000Y-52980000D03*
X103010000Y-52980000D03*
D26*
X152760000Y-88810000D03*
X152760000Y-86610000D03*
D28*
X190220000Y-93360000D03*
X187720000Y-95900000D03*
X190220000Y-98440000D03*
X190250000Y-73200000D03*
X187750000Y-75740000D03*
X190250000Y-78280000D03*
D29*
X80620000Y-117645000D03*
X73820000Y-117645000D03*
D24*
X68540000Y-101125000D03*
X66540000Y-108625000D03*
D16*
X152755000Y-81980000D03*
X152755000Y-83880000D03*
D30*
X103750000Y-92650000D03*
X103750000Y-92150000D03*
X103750000Y-91650000D03*
X103750000Y-91150000D03*
X103750000Y-90650000D03*
X108150000Y-90650000D03*
X108150000Y-91150000D03*
X108150000Y-91650000D03*
X108150000Y-92150000D03*
X108150000Y-92650000D03*
D12*
X148370000Y-50800000D03*
X146370000Y-50800000D03*
X71830000Y-76090000D03*
X73830000Y-76090000D03*
D21*
X55535000Y-86235000D03*
X55535000Y-88235000D03*
D12*
X146330000Y-63500000D03*
X148330000Y-63500000D03*
X146365000Y-61010000D03*
X148365000Y-61010000D03*
X146250000Y-58410000D03*
X148250000Y-58410000D03*
X53100000Y-74150000D03*
X55100000Y-74150000D03*
X146330000Y-55840000D03*
X148330000Y-55840000D03*
D21*
X119250000Y-101270000D03*
X119250000Y-103270000D03*
D12*
X146370000Y-48320000D03*
X148370000Y-48320000D03*
X108225000Y-95050000D03*
X110225000Y-95050000D03*
D21*
X101200000Y-92625000D03*
X101200000Y-90625000D03*
X98875000Y-92625000D03*
X98875000Y-90625000D03*
X96675000Y-92625000D03*
X96675000Y-90625000D03*
D12*
X183730000Y-81740000D03*
X181730000Y-81740000D03*
D31*
X111625000Y-103525000D03*
X111625000Y-97325000D03*
X106550000Y-103525000D03*
X106550000Y-97325000D03*
D32*
X48730000Y-91970000D03*
D33*
X48730000Y-97050000D03*
D15*
X120255000Y-112075000D03*
X118985000Y-112075000D03*
X117715000Y-112075000D03*
X116445000Y-112075000D03*
X116445000Y-106675000D03*
X117715000Y-106675000D03*
X118985000Y-106675000D03*
X120255000Y-106675000D03*
X156770000Y-111820000D03*
X155500000Y-111820000D03*
X154230000Y-111820000D03*
X152960000Y-111820000D03*
X152960000Y-106420000D03*
X154230000Y-106420000D03*
X155500000Y-106420000D03*
X156770000Y-106420000D03*
X88505000Y-111600000D03*
X87235000Y-111600000D03*
X85965000Y-111600000D03*
X84695000Y-111600000D03*
X84695000Y-106200000D03*
X85965000Y-106200000D03*
X87235000Y-106200000D03*
X88505000Y-106200000D03*
X100780000Y-111550000D03*
X99510000Y-111550000D03*
X98240000Y-111550000D03*
X96970000Y-111550000D03*
X96970000Y-106150000D03*
X98240000Y-106150000D03*
X99510000Y-106150000D03*
X100780000Y-106150000D03*
X76355000Y-111600000D03*
X75085000Y-111600000D03*
X73815000Y-111600000D03*
X72545000Y-111600000D03*
X72545000Y-106200000D03*
X73815000Y-106200000D03*
X75085000Y-106200000D03*
X76355000Y-106200000D03*
D32*
X48730000Y-75970000D03*
X48730000Y-78510000D03*
D33*
X48730000Y-81050000D03*
X67360000Y-81050000D03*
D32*
X67360000Y-78510000D03*
X67360000Y-75970000D03*
D34*
X78380000Y-93680000D03*
X79650000Y-93680000D03*
X80920000Y-93680000D03*
X82190000Y-93680000D03*
X83460000Y-93680000D03*
X84730000Y-93680000D03*
X86000000Y-93680000D03*
X86000000Y-88280000D03*
X84730000Y-88280000D03*
X83460000Y-88280000D03*
X82190000Y-88280000D03*
X80920000Y-88280000D03*
X79650000Y-88280000D03*
X78380000Y-88280000D03*
X99460000Y-82290000D03*
X100730000Y-82290000D03*
X102000000Y-82290000D03*
X103270000Y-82290000D03*
X104540000Y-82290000D03*
X105810000Y-82290000D03*
X107080000Y-82290000D03*
X107080000Y-76890000D03*
X105810000Y-76890000D03*
X104540000Y-76890000D03*
X103270000Y-76890000D03*
X102000000Y-76890000D03*
X100730000Y-76890000D03*
X99460000Y-76890000D03*
D11*
X120940000Y-81350000D03*
X119040000Y-81350000D03*
D35*
X74915000Y-80390000D03*
X71865000Y-80390000D03*
D11*
X113634000Y-76270000D03*
X111734000Y-76270000D03*
X120940000Y-99030000D03*
X119040000Y-99030000D03*
X119040000Y-96590000D03*
X120940000Y-96590000D03*
D36*
X121055000Y-93665000D03*
X118955000Y-93665000D03*
D37*
X179580000Y-83635000D03*
X179580000Y-84905000D03*
X179580000Y-86175000D03*
X179580000Y-87445000D03*
X184980000Y-87445000D03*
X184980000Y-86175000D03*
X184980000Y-84905000D03*
X184980000Y-83635000D03*
D16*
X100070000Y-97875000D03*
X100070000Y-99775000D03*
D11*
X113634000Y-73730000D03*
X111734000Y-73730000D03*
X111695000Y-58370000D03*
X113595000Y-58370000D03*
X154820000Y-50840000D03*
X152920000Y-50840000D03*
X146270000Y-45890000D03*
X148170000Y-45890000D03*
D16*
X146775000Y-76380000D03*
X146775000Y-74480000D03*
X76350000Y-99800000D03*
X76350000Y-97900000D03*
X73825000Y-97875000D03*
X73825000Y-99775000D03*
X70455000Y-117800000D03*
X70455000Y-115900000D03*
X67350000Y-90375000D03*
X67350000Y-88475000D03*
D35*
X56575000Y-77925000D03*
X53525000Y-77925000D03*
D38*
X114410000Y-44190000D03*
D39*
X116950000Y-44190000D03*
X119490000Y-44190000D03*
X122030000Y-44190000D03*
D11*
X113634000Y-68550000D03*
X111734000Y-68550000D03*
X113595000Y-60910000D03*
X111695000Y-60910000D03*
X111734000Y-71090000D03*
X113634000Y-71090000D03*
X120870000Y-66010000D03*
X118970000Y-66010000D03*
X113570000Y-63450000D03*
X111670000Y-63450000D03*
X120870000Y-60910000D03*
X118970000Y-60910000D03*
X118970000Y-58370000D03*
X120870000Y-58370000D03*
X120940000Y-68550000D03*
X119040000Y-68550000D03*
X118970000Y-63450000D03*
X120870000Y-63450000D03*
X152920000Y-55840000D03*
X154820000Y-55840000D03*
X113564000Y-66010000D03*
X111664000Y-66010000D03*
X148420000Y-78840000D03*
X146520000Y-78840000D03*
X119040000Y-49850000D03*
X120940000Y-49850000D03*
X120940000Y-47310000D03*
X119040000Y-47310000D03*
D16*
X153200000Y-48230000D03*
X153200000Y-46330000D03*
D11*
X119040000Y-71090000D03*
X120940000Y-71090000D03*
X119035000Y-84230000D03*
X120935000Y-84230000D03*
X159130000Y-50840000D03*
X161030000Y-50840000D03*
X152920000Y-58480000D03*
X154820000Y-58480000D03*
X152740000Y-76170000D03*
X154640000Y-76170000D03*
X148230000Y-66120000D03*
X146330000Y-66120000D03*
X154640000Y-78950000D03*
X152740000Y-78950000D03*
X119040000Y-73730000D03*
X120940000Y-73730000D03*
X120940000Y-76270000D03*
X119040000Y-76270000D03*
D16*
X181730000Y-77630000D03*
X181730000Y-79530000D03*
D11*
X120940000Y-78810000D03*
X119040000Y-78810000D03*
X181320000Y-92510000D03*
X183220000Y-92510000D03*
D16*
X179680000Y-77630000D03*
X179680000Y-79530000D03*
D11*
X154765000Y-61015000D03*
X152865000Y-61015000D03*
D16*
X102645000Y-97875000D03*
X102645000Y-99775000D03*
D11*
X147768995Y-108840226D03*
X145868995Y-108840226D03*
X145883995Y-111340226D03*
X147783995Y-111340226D03*
D16*
X88550000Y-99775000D03*
X88550000Y-97875000D03*
X94250000Y-97875000D03*
X94250000Y-99775000D03*
X96825000Y-99775000D03*
X96825000Y-97875000D03*
X85950000Y-97875000D03*
X85950000Y-99775000D03*
X179590000Y-90590000D03*
X179590000Y-92490000D03*
D13*
X155920000Y-98660000D03*
D40*
X145760000Y-98660000D03*
X145795000Y-94555000D03*
D13*
X155955000Y-94555000D03*
D41*
G36*
X199498000Y-132498000D02*
G01*
X190905000Y-132498000D01*
X190880224Y-132500440D01*
X190856399Y-132507667D01*
X190834443Y-132519403D01*
X190819863Y-132530763D01*
X185316308Y-137502838D01*
X183987000Y-137498422D01*
X183987000Y-123002000D01*
X199498000Y-123002000D01*
X199498000Y-132498000D01*
G37*
X199498000Y-132498000D02*
X190905000Y-132498000D01*
X190880224Y-132500440D01*
X190856399Y-132507667D01*
X190834443Y-132519403D01*
X190819863Y-132530763D01*
X185316308Y-137502838D01*
X183987000Y-137498422D01*
X183987000Y-123002000D01*
X199498000Y-123002000D01*
X199498000Y-132498000D01*
G36*
X55508000Y-137498000D02*
G01*
X54694095Y-137498000D01*
X49235425Y-132536024D01*
X49215450Y-132521164D01*
X49192959Y-132510486D01*
X49168818Y-132504402D01*
X49150000Y-132503000D01*
X40502000Y-132503000D01*
X40502000Y-123002000D01*
X55508000Y-123002000D01*
X55508000Y-137498000D01*
G37*
X55508000Y-137498000D02*
X54694095Y-137498000D01*
X49235425Y-132536024D01*
X49215450Y-132521164D01*
X49192959Y-132510486D01*
X49168818Y-132504402D01*
X49150000Y-132503000D01*
X40502000Y-132503000D01*
X40502000Y-123002000D01*
X55508000Y-123002000D01*
X55508000Y-137498000D01*
M02*
