G04 #@! TF.GenerationSoftware,KiCad,Pcbnew,5.1.6-c6e7f7d~86~ubuntu18.04.1*
G04 #@! TF.CreationDate,2020-06-20T16:23:47+10:00*
G04 #@! TF.ProjectId,X3V0_2,58335630-5f32-42e6-9b69-6361645f7063,rev?*
G04 #@! TF.SameCoordinates,Original*
G04 #@! TF.FileFunction,Profile,NP*
%FSLAX46Y46*%
G04 Gerber Fmt 4.6, Leading zero omitted, Abs format (unit mm)*
G04 Created by KiCad (PCBNEW 5.1.6-c6e7f7d~86~ubuntu18.04.1) date 2020-06-20 16:23:47*
%MOMM*%
%LPD*%
G01*
G04 APERTURE LIST*
G04 #@! TA.AperFunction,Profile*
%ADD10C,0.150000*%
G04 #@! TD*
G04 APERTURE END LIST*
D10*
X191000000Y-133000000D02*
X185500000Y-138000000D01*
X200000000Y-133000000D02*
X191000000Y-133000000D01*
X54500000Y-138000000D02*
X185500000Y-138000000D01*
X49000000Y-133000000D02*
X54500000Y-138000000D01*
X40000000Y-133000000D02*
X49000000Y-133000000D01*
X200000000Y-122500000D02*
X200000000Y-133000000D01*
X200000000Y-68000000D02*
X200000000Y-107000000D01*
X200000000Y-40000000D02*
X200000000Y-52500000D01*
X40000000Y-122500000D02*
X40000000Y-133000000D01*
X40000000Y-68000000D02*
X40000000Y-107000000D01*
X40000000Y-40000000D02*
X40000000Y-52500000D01*
X181500000Y-68000000D02*
G75*
G02*
X179000000Y-65500000I0J2500000D01*
G01*
X200000000Y-68000000D02*
X181500000Y-68000000D01*
X179000000Y-109500000D02*
G75*
G02*
X181500000Y-107000000I2500000J0D01*
G01*
X200000000Y-52500000D02*
X181500000Y-52500000D01*
X181500000Y-122500000D02*
G75*
G02*
X179000000Y-120000000I0J2500000D01*
G01*
X179000000Y-120000000D02*
X179000000Y-109500000D01*
X200000000Y-107000000D02*
X181500000Y-107000000D01*
X179000000Y-65500000D02*
X179000000Y-55000000D01*
X179000000Y-55000000D02*
G75*
G02*
X181500000Y-52500000I2500000J0D01*
G01*
X200000000Y-122500000D02*
X181500000Y-122500000D01*
X58500000Y-52500000D02*
G75*
G02*
X61000000Y-55000000I0J-2500000D01*
G01*
X40000000Y-52500000D02*
X58500000Y-52500000D01*
X40000000Y-68000000D02*
X58500000Y-68000000D01*
X61000000Y-55000000D02*
X61000000Y-65500000D01*
X61000000Y-65500000D02*
G75*
G02*
X58500000Y-68000000I-2500000J0D01*
G01*
X61000000Y-109500000D02*
X61005000Y-120000000D01*
X58500000Y-107000000D02*
G75*
G02*
X61000000Y-109500000I0J-2500000D01*
G01*
X40000000Y-107000000D02*
X58500000Y-107000000D01*
X61005000Y-120000000D02*
G75*
G02*
X58505000Y-122500000I-2500000J0D01*
G01*
X40000000Y-122500000D02*
X58500000Y-122500000D01*
X40000000Y-40000000D02*
X200000000Y-40000000D01*
M02*
